<svg width="40" height="32" viewBox="0 0 40 32" fill="none" xmlns="http://www.w3.org/2000/svg">
<path d="M35.6699 16.8188H4.28721C3.62969 16.8188 3.09277 17.3762 3.15307 18.0341C3.84216 25.8487 11.1121 31.9997 19.9785 31.9997C28.8449 31.9997 36.1149 25.8515 36.804 18.0341C36.8614 17.3762 36.3274 16.8188 35.6699 16.8188Z" fill="#FF6633"/>
<path fill-rule="evenodd" clip-rule="evenodd" d="M0.225147 3.33137C1.7887 1.27854 4.60645 0 7.711 0C10.8155 0 13.6333 1.27854 15.1969 3.33137C15.5659 3.81589 15.4714 4.50716 14.9858 4.87537C14.5001 5.24357 13.8073 5.14928 13.4383 4.66476C12.3661 3.25707 10.2569 2.20377 7.711 2.20377C5.16509 2.20377 3.05591 3.25707 1.98374 4.66476C1.6147 5.14928 0.921857 5.24357 0.436236 4.87537C-0.0493858 4.50716 -0.143894 3.81589 0.225147 3.33137Z" fill="#414141"/>
<path fill-rule="evenodd" clip-rule="evenodd" d="M24.7681 3.33137C26.3317 1.27854 29.1494 0 32.254 0C35.3562 0 38.1731 1.27884 39.7391 3.33045C40.1087 3.81458 40.0149 4.50596 39.5297 4.87467C39.0444 5.24338 38.3515 5.14981 37.9819 4.66568C36.9065 3.25676 34.7965 2.20377 32.254 2.20377C29.7081 2.20377 27.5989 3.25707 26.5267 4.66476C26.1577 5.14928 25.4648 5.24357 24.9792 4.87537C24.4936 4.50716 24.3991 3.81589 24.7681 3.33137Z" fill="#414141"/>
</svg>
