<svg width="64" height="44" viewBox="0 0 64 44" fill="none" xmlns="http://www.w3.org/2000/svg">
<path d="M44.993 14.2617H17.4761C16.8991 14.2617 16.43 14.7325 16.4803 15.2855C17.0833 21.8704 23.4586 27.052 31.2336 27.052C39.0086 27.052 45.3838 21.8704 45.9869 15.2855C46.0391 14.7325 45.57 14.2617 44.993 14.2617Z" fill="#FF6633"/>
<path d="M26.2672 4.40841C25.9601 4.40841 25.6548 4.27596 25.4557 4.0218C24.4505 2.75101 22.5407 1.95989 20.4727 1.95989C18.4047 1.95989 16.495 2.74922 15.4898 4.0218C15.1492 4.45316 14.5089 4.53549 14.0621 4.20795C13.6135 3.88041 13.5279 3.2647 13.8685 2.83513C15.272 1.05959 17.7402 0 20.4727 0C23.2052 0 25.6734 1.05959 27.0788 2.83513C27.4194 3.26648 27.3319 3.88041 26.8852 4.20795C26.6991 4.34398 26.4831 4.40841 26.2672 4.40841Z" fill="#414141"/>
<path d="M47.7868 4.40841C47.4796 4.40841 47.1744 4.27596 46.9752 4.0218C45.97 2.75101 44.0603 1.95989 41.9923 1.95989C39.9243 1.95989 38.0145 2.74922 37.0093 4.0218C36.6687 4.45316 36.0284 4.53549 35.5817 4.20795C35.1331 3.88041 35.0474 3.2647 35.3881 2.83513C36.7916 1.05959 39.2598 0 41.9923 0C44.7248 0 47.193 1.05959 48.5983 2.83513C48.939 3.26648 48.8515 3.88041 48.4047 4.20795C48.2186 4.34398 48.0027 4.40841 47.7868 4.40841Z" fill="#414141"/>
<path d="M2.85197 30.0031L2.45178 31.0216C2.41641 31.1057 2.28797 31.1397 2.16885 31.0985C1.89708 31.0198 1.61601 30.8784 1.32192 30.6707C1.02968 30.4667 0.798866 30.2501 0.627619 30.0228C0.368886 29.6774 0.188332 29.3015 0.087817 28.9006C-0.00897503 28.4961 -0.0238661 28.1059 0.0338368 27.7229C0.0952625 27.3434 0.236728 26.9765 0.456371 26.6257C0.677876 26.2749 0.962668 25.976 1.32005 25.729C1.67558 25.482 2.06089 25.3137 2.47597 25.2224C2.89106 25.1311 3.29871 25.1168 3.69332 25.1813C4.09352 25.2457 4.47324 25.3835 4.83807 25.6001C5.20663 25.8149 5.5212 26.0977 5.77993 26.4431C5.9456 26.6651 6.0852 26.9461 6.19316 27.2808C6.30484 27.6155 6.36068 27.9287 6.35882 28.2222C6.36068 28.3404 6.2732 28.4299 6.17641 28.4334L5.04841 28.4639C4.94045 28.4639 4.8511 28.3672 4.8511 28.2294C4.85482 28.0629 4.83249 27.8947 4.77851 27.7193C4.72453 27.5439 4.65566 27.3989 4.57003 27.2843C4.29269 26.9156 3.92413 26.6919 3.46251 26.6203C3.00461 26.5469 2.58766 26.6436 2.20421 26.9085C1.82449 27.1716 1.5974 27.5224 1.52667 27.9645C1.45966 28.403 1.5639 28.8111 1.84124 29.1798C1.92687 29.2944 2.04413 29.4017 2.19677 29.502C2.35126 29.604 2.50203 29.681 2.65653 29.7293C2.8073 29.7758 2.89106 29.8957 2.85197 30.0031Z" fill="#414141"/>
<path d="M7.3565 28.8366C7.44957 28.7382 7.5687 28.7346 7.66921 28.8241L10.5655 31.3836C10.6679 31.4731 10.6716 31.5876 10.5786 31.6843L9.92707 32.3644C9.82842 32.4683 9.72232 32.4718 9.61436 32.377L7.6599 30.6498L6.97491 31.3657L8.45844 32.6777C8.57012 32.7761 8.58129 32.8942 8.48077 32.998L7.94283 33.5601C7.84976 33.6585 7.72505 33.6567 7.61523 33.5601L6.13171 32.2481L5.4281 32.9855L7.38256 34.7127C7.5203 34.8344 7.53147 34.9919 7.4142 35.1119L6.80367 35.7508C6.71246 35.8457 6.59147 35.8475 6.49095 35.758L3.53507 33.1484C3.4327 33.0589 3.42525 32.9479 3.51832 32.8495L7.3565 28.8366Z" fill="#414141"/>
<path d="M13.6184 37.2572C13.611 37.5418 13.5272 37.8085 13.3653 38.0572C13.0582 38.5316 12.6598 38.8036 12.1703 38.8752C11.6845 38.9486 11.154 38.8161 10.5825 38.4725L8.57036 37.2661C8.47729 37.2106 8.46054 37.139 8.51638 37.0531L11.5802 32.3279C11.6361 32.242 11.7105 32.2259 11.8017 32.2814L13.665 33.3983C14.2104 33.7258 14.551 34.1052 14.6887 34.5384C14.8265 34.9715 14.7483 35.4172 14.4542 35.8718C14.2178 36.237 13.8046 36.4768 13.3895 36.4893C13.5496 36.7184 13.6259 36.9726 13.6184 37.2572ZM11.2843 37.3556C11.6137 37.5543 11.9525 37.4809 12.1535 37.1713C12.3508 36.867 12.2634 36.5538 11.932 36.3569L11.087 35.8504L10.4392 36.8491L11.2843 37.3556ZM12.2354 34.082L11.6882 34.925L12.3862 35.3438C12.6673 35.5121 12.9465 35.453 13.114 35.1935C13.2815 34.9339 13.2127 34.669 12.9316 34.5008L12.2354 34.082Z" fill="#414141"/>
<path d="M16.4635 35.1861C16.5156 35.0626 16.6236 35.0179 16.752 35.068L20.4022 36.4766C20.5306 36.5268 20.5771 36.6306 20.525 36.7541L20.1676 37.6114C20.1137 37.7421 20.015 37.7814 19.8791 37.7295L17.4146 36.7791L17.0387 37.6812L18.9093 38.4025C19.0489 38.4562 19.1029 38.5636 19.0489 38.6943L18.753 39.403C18.7009 39.5265 18.5855 39.5677 18.4459 39.514L16.5752 38.7927L16.188 39.7216L18.6525 40.6721C18.8274 40.7401 18.8945 40.8815 18.8293 41.0354L18.4924 41.8408C18.4421 41.9608 18.3305 42.0037 18.202 41.9536L14.4774 40.5163C14.3489 40.4662 14.3006 40.366 14.3527 40.2425L16.4635 35.1861Z" fill="#414141"/>
<path d="M23.9786 37.3447C24.6152 37.4789 25.0898 37.7689 25.4026 38.2181C25.7153 38.6638 25.8065 39.1882 25.6669 39.7932C25.531 40.391 25.2201 40.8278 24.7418 41.1052C24.2634 41.379 23.7087 41.4506 23.0702 41.3164L22.3555 41.166L21.9981 42.7286C21.9683 42.8575 21.8696 42.9201 21.7263 42.8897L20.6802 42.6695C20.5462 42.6409 20.4866 42.546 20.5145 42.4171L21.73 37.0959C21.758 36.9742 21.8641 36.9026 21.9906 36.9294L22.5174 37.0404L23.0479 37.1532L23.9786 37.3447ZM23.3048 40.0098C23.5132 40.0545 23.7031 40.0241 23.8688 39.9239C24.0382 39.8236 24.1443 39.6733 24.1908 39.4728C24.2373 39.2724 24.2057 39.0934 24.0959 38.9341C23.9916 38.7712 23.8315 38.6674 23.6231 38.6244L22.9697 38.4866L22.6533 39.8738L23.3048 40.0098Z" fill="#414141"/>
<path d="M31.2765 38.1307C31.4068 38.1378 31.4887 38.2309 31.4812 38.3544L31.1685 43.7991C31.1611 43.9316 31.0773 44.0086 30.9396 43.9996L29.8711 43.9423C29.7241 43.9352 29.6459 43.8493 29.6534 43.7168L29.7464 42.0952L29.1247 42.063L28.1363 43.6703C28.0488 43.8063 27.993 43.8439 27.872 43.8367L26.623 43.7705C26.489 43.7633 26.422 43.6309 26.4946 43.5181L27.6728 41.6674C27.0958 41.2951 26.7831 40.6705 26.8259 39.9348C26.8613 39.3209 27.0902 38.8377 27.5165 38.4886C27.9427 38.136 28.4844 37.9803 29.1359 38.0143L31.0029 38.1128L31.2765 38.1307ZM29.819 40.8387L29.9028 39.3764L29.1229 39.3352C28.9051 39.3245 28.7227 39.3818 28.5775 39.5071C28.4323 39.6324 28.3522 39.797 28.3392 40.0064C28.328 40.2159 28.3876 40.3948 28.5179 40.5506C28.6519 40.7027 28.8269 40.785 29.0391 40.7958L29.819 40.8387Z" fill="#414141"/>
<path d="M37.8868 37.5528C37.9911 37.5402 38.0506 37.5868 38.0637 37.6906L38.7524 43.2177C38.7654 43.3215 38.717 43.3788 38.6146 43.3913L37.4401 43.5273C37.3359 43.5398 37.2763 43.4933 37.2633 43.3895L36.9897 41.1933L34.7188 41.4547L34.9924 43.6508C35.0054 43.7546 34.957 43.8119 34.8547 43.8244L33.6838 43.9587C33.5759 43.9712 33.5163 43.9247 33.5033 43.8209L32.8146 38.2938C32.8015 38.19 32.8499 38.1327 32.9579 38.1202L34.1287 37.9859C34.2329 37.9734 34.2925 38.0199 34.3055 38.1237L34.5568 40.1409L36.8277 39.8796L36.5764 37.8624C36.5634 37.7586 36.6118 37.7013 36.7142 37.6888L37.8868 37.5528Z" fill="#414141"/>
<path d="M39.7982 38.9777C39.8317 38.5643 39.9396 38.1866 40.1183 37.8466C40.3008 37.5047 40.552 37.1968 40.8741 36.9284C41.1942 36.6563 41.5609 36.4558 41.9779 36.3234C42.3948 36.1909 42.8136 36.1426 43.2362 36.1784C43.6606 36.2088 44.0533 36.3127 44.407 36.4845C44.7644 36.6545 45.0864 36.8961 45.3656 37.2094C45.6485 37.5172 45.857 37.8698 45.9947 38.2708C46.1771 38.8023 46.2106 39.3339 46.0971 39.8601C45.9836 40.3882 45.7434 40.8535 45.3656 41.258C44.9933 41.6607 44.528 41.9471 43.9714 42.1243C43.5545 42.2568 43.1356 42.3051 42.7112 42.2747C42.285 42.2407 41.8922 42.1368 41.5349 41.9668C41.1812 41.795 40.861 41.5551 40.58 41.2491C40.3026 40.9394 40.0923 40.5868 39.9564 40.1895C39.8168 39.7885 39.7665 39.3858 39.7982 38.9777ZM42.218 40.6602C42.6256 40.8571 43.0519 40.8821 43.4968 40.7408C43.9379 40.6011 44.2599 40.3362 44.4665 39.9461C44.6713 39.5541 44.7048 39.1514 44.5577 38.7272C44.4107 38.2994 44.1333 37.9897 43.7257 37.7929C43.3181 37.596 42.8937 37.5656 42.4544 37.7052C42.0132 37.8448 41.6875 38.1132 41.4827 38.5052C41.278 38.8972 41.2463 39.3053 41.3934 39.7313C41.5386 40.1573 41.8122 40.4633 42.218 40.6602Z" fill="#414141"/>
<path d="M49.9458 32.7735C50.0464 32.718 50.1711 32.7556 50.2362 32.863L53.0655 37.5811C53.1269 37.6813 53.0934 37.8119 52.9873 37.8692L52.0492 38.3883C51.945 38.4473 51.8165 38.4098 51.7551 38.3095L50.8002 36.7183C50.6829 37.1032 50.3963 37.4701 49.9924 37.6956C49.3688 38.041 48.7471 38.1305 48.1291 37.9677C47.5093 37.8012 47.0086 37.4021 46.6289 36.7685L45.7708 35.3366C45.7093 35.2363 45.7372 35.1039 45.8359 35.0502L46.7666 34.5347C46.882 34.4703 47.0179 34.5025 47.0812 34.6099L47.9374 36.0382C48.265 36.5841 48.7955 36.7219 49.3651 36.4069C49.6517 36.2476 49.8267 36.0436 49.903 35.793C49.9793 35.5424 49.9403 35.2847 49.7839 35.0234L48.9239 33.5879C48.8625 33.4877 48.8942 33.3534 48.9965 33.2979L49.9458 32.7735Z" fill="#414141"/>
<path d="M59.2334 32.6005C59.3767 32.6345 59.4456 32.7633 59.3376 32.8564L58.3027 33.746C58.2375 33.8014 58.1593 33.8265 58.0756 33.8158L55.3896 33.1464L54.7474 33.6976L56.2328 35.296C56.3054 35.3747 56.3017 35.4481 56.2235 35.5143L55.3356 36.2786C55.2537 36.3484 55.1774 36.3448 55.1048 36.2661L51.2517 32.119C51.1829 32.0438 51.1866 31.9704 51.2666 31.9006L52.1545 31.1364C52.2327 31.0701 52.309 31.0737 52.3797 31.1489L53.7944 32.672L54.297 32.2407L54.0606 29.6991C54.0457 29.5452 54.0941 29.4825 54.2039 29.3877L55.2295 28.5071C55.3449 28.4086 55.4715 28.4838 55.4845 28.6431L55.7619 31.7485L59.2334 32.6005Z" fill="#414141"/>
<path d="M63.8473 26.6724C63.9906 26.7064 64.0483 26.8084 63.9552 26.9373L63.2721 27.8716C63.2051 27.9629 63.0766 28.0005 62.9538 27.9718L62.1385 27.7445L60.9193 29.4109L61.4163 30.066C61.4926 30.1572 61.4982 30.2897 61.4237 30.3899L60.7425 31.3206C60.6531 31.4424 60.5359 31.437 60.4465 31.3117L57.0979 26.4218C57.0234 26.3073 57.0271 26.1766 57.0942 26.0853L57.6023 25.3909C57.6693 25.2996 57.8033 25.2566 57.9281 25.287L63.8473 26.6724ZM60.1319 28.3763L60.8579 27.383L58.9797 26.855L60.1319 28.3763Z" fill="#414141"/>
</svg>
